<mxfile host="65bd71144e">
    <diagram name="Page-1" id="2YBvvXClWsGukQMizWep">
        <mxGraphModel dx="2002" dy="864" grid="1" gridSize="10" guides="1" tooltips="1" connect="1" arrows="1" fold="1" page="1" pageScale="1" pageWidth="850" pageHeight="1100" math="0" shadow="0">
            <root>
                <mxCell id="0"/>
                <mxCell id="1" parent="0"/>
                <mxCell id="JJxVMYK1_M4ANEbQjyfr-21" value="&lt;p style=&quot;margin:0px;margin-top:4px;margin-left:10px;text-align:left;&quot;&gt;&lt;b&gt;Sd Gérer véhicules&lt;/b&gt;&lt;/p&gt;" style="html=1;shape=mxgraph.sysml.package;labelX=144.67;html=1;overflow=fill;strokeWidth=1;recursiveResize=0;" parent="1" vertex="1">
                    <mxGeometry x="-850" y="10" width="760" height="1060" as="geometry"/>
                </mxCell>
                <mxCell id="JJxVMYK1_M4ANEbQjyfr-1" value="Secrétaire&lt;br&gt;" style="shape=umlActor;verticalLabelPosition=bottom;verticalAlign=top;html=1;outlineConnect=0;" parent="JJxVMYK1_M4ANEbQjyfr-21" vertex="1">
                    <mxGeometry x="50" y="40" width="30" height="70" as="geometry"/>
                </mxCell>
                <mxCell id="aM9ryv3xv72pqoxQDRHE-5" value="Système&lt;br&gt;" style="shape=umlLifeline;perimeter=lifelinePerimeter;whiteSpace=wrap;html=1;container=0;dropTarget=0;collapsible=0;recursiveResize=0;outlineConnect=0;portConstraint=eastwest;newEdgeStyle={&quot;edgeStyle&quot;:&quot;elbowEdgeStyle&quot;,&quot;elbow&quot;:&quot;vertical&quot;,&quot;curved&quot;:0,&quot;rounded&quot;:0};" parent="JJxVMYK1_M4ANEbQjyfr-21" vertex="1">
                    <mxGeometry x="570" y="20" width="100" height="410" as="geometry"/>
                </mxCell>
                <mxCell id="aM9ryv3xv72pqoxQDRHE-6" value="" style="html=1;points=[];perimeter=orthogonalPerimeter;outlineConnect=0;targetShapes=umlLifeline;portConstraint=eastwest;newEdgeStyle={&quot;edgeStyle&quot;:&quot;elbowEdgeStyle&quot;,&quot;elbow&quot;:&quot;vertical&quot;,&quot;curved&quot;:0,&quot;rounded&quot;:0};" parent="aM9ryv3xv72pqoxQDRHE-5" vertex="1">
                    <mxGeometry x="45" y="80" width="10" height="310" as="geometry"/>
                </mxCell>
                <mxCell id="blW8z2-uSETgaS1ceUKB-14" value="" style="html=1;points=[];perimeter=orthogonalPerimeter;outlineConnect=0;targetShapes=umlLifeline;portConstraint=eastwest;newEdgeStyle={&quot;edgeStyle&quot;:&quot;elbowEdgeStyle&quot;,&quot;elbow&quot;:&quot;vertical&quot;,&quot;curved&quot;:0,&quot;rounded&quot;:0};" parent="JJxVMYK1_M4ANEbQjyfr-21" vertex="1">
                    <mxGeometry x="60" y="170" width="10" height="220" as="geometry"/>
                </mxCell>
                <mxCell id="blW8z2-uSETgaS1ceUKB-12" value="" style="endArrow=none;html=1;rounded=0;dashed=1;dashPattern=1 2;" parent="JJxVMYK1_M4ANEbQjyfr-21" target="blW8z2-uSETgaS1ceUKB-14" edge="1">
                    <mxGeometry relative="1" as="geometry">
                        <mxPoint x="65" y="140" as="sourcePoint"/>
                        <mxPoint x="80" y="760" as="targetPoint"/>
                    </mxGeometry>
                </mxCell>
                <mxCell id="blW8z2-uSETgaS1ceUKB-13" value="" style="resizable=0;html=1;align=right;verticalAlign=bottom;" parent="blW8z2-uSETgaS1ceUKB-12" connectable="0" vertex="1">
                    <mxGeometry x="1" relative="1" as="geometry"/>
                </mxCell>
                <mxCell id="blW8z2-uSETgaS1ceUKB-15" value="&lt;p style=&quot;margin:0px;margin-top:4px;margin-left:5px;text-align:left;&quot;&gt;&lt;b&gt;REF&lt;/b&gt;&lt;/p&gt;" style="html=1;shape=mxgraph.sysml.package;overflow=fill;labelX=55.23;align=left;spacingLeft=5;verticalAlign=top;spacingTop=-3;" parent="JJxVMYK1_M4ANEbQjyfr-21" vertex="1">
                    <mxGeometry x="130" y="135" width="420" height="45" as="geometry"/>
                </mxCell>
                <mxCell id="blW8z2-uSETgaS1ceUKB-16" value="Diagramme s'authentifier" style="text;html=1;strokeColor=none;fillColor=none;align=center;verticalAlign=middle;whiteSpace=wrap;rounded=0;" parent="JJxVMYK1_M4ANEbQjyfr-21" vertex="1">
                    <mxGeometry x="240" y="142.5" width="200" height="30" as="geometry"/>
                </mxCell>
                <mxCell id="blW8z2-uSETgaS1ceUKB-49" value="" style="endArrow=open;endFill=1;endSize=12;html=1;rounded=0;" parent="JJxVMYK1_M4ANEbQjyfr-21" edge="1">
                    <mxGeometry width="160" relative="1" as="geometry">
                        <mxPoint x="105" y="240" as="sourcePoint"/>
                        <mxPoint x="575" y="240" as="targetPoint"/>
                        <Array as="points">
                            <mxPoint x="265" y="240"/>
                            <mxPoint x="315" y="240"/>
                            <mxPoint x="375" y="240"/>
                        </Array>
                    </mxGeometry>
                </mxCell>
                <mxCell id="blW8z2-uSETgaS1ceUKB-50" value="Accéder à la page gestion Véhicule" style="text;html=1;strokeColor=none;fillColor=none;align=center;verticalAlign=middle;whiteSpace=wrap;rounded=0;" parent="JJxVMYK1_M4ANEbQjyfr-21" vertex="1">
                    <mxGeometry x="250" y="190" width="210" height="30" as="geometry"/>
                </mxCell>
                <mxCell id="blW8z2-uSETgaS1ceUKB-56" value="&lt;p style=&quot;margin:0px;margin-top:4px;margin-left:5px;text-align:left;&quot;&gt;&lt;b&gt;ALT&lt;/b&gt;&lt;/p&gt;" style="html=1;shape=mxgraph.sysml.package;overflow=fill;labelX=55.23;align=left;spacingLeft=5;verticalAlign=top;spacingTop=-3;" parent="JJxVMYK1_M4ANEbQjyfr-21" vertex="1">
                    <mxGeometry x="10" y="440" width="720" height="610" as="geometry"/>
                </mxCell>
                <mxCell id="blW8z2-uSETgaS1ceUKB-57" value="Le cas : Ajouter Véhicule" style="text;html=1;strokeColor=none;fillColor=none;align=center;verticalAlign=middle;whiteSpace=wrap;rounded=0;" parent="JJxVMYK1_M4ANEbQjyfr-21" vertex="1">
                    <mxGeometry x="70" y="440" width="210" height="30" as="geometry"/>
                </mxCell>
                <mxCell id="blW8z2-uSETgaS1ceUKB-58" value="" style="endArrow=open;endFill=1;endSize=12;html=1;rounded=0;" parent="JJxVMYK1_M4ANEbQjyfr-21" edge="1">
                    <mxGeometry width="160" relative="1" as="geometry">
                        <mxPoint x="110" y="360" as="sourcePoint"/>
                        <mxPoint x="580" y="360" as="targetPoint"/>
                        <Array as="points">
                            <mxPoint x="270" y="360"/>
                            <mxPoint x="380" y="360"/>
                        </Array>
                    </mxGeometry>
                </mxCell>
                <mxCell id="blW8z2-uSETgaS1ceUKB-59" value="Choisir une option" style="text;html=1;strokeColor=none;fillColor=none;align=center;verticalAlign=middle;whiteSpace=wrap;rounded=0;" parent="JJxVMYK1_M4ANEbQjyfr-21" vertex="1">
                    <mxGeometry x="240" y="310" width="210" height="30" as="geometry"/>
                </mxCell>
                <mxCell id="blW8z2-uSETgaS1ceUKB-64" value="" style="endArrow=none;html=1;rounded=0;dashed=1;dashPattern=1 2;exitX=-0.001;exitY=0.206;exitDx=0;exitDy=0;exitPerimeter=0;entryX=1.001;entryY=0.206;entryDx=0;entryDy=0;entryPerimeter=0;" parent="JJxVMYK1_M4ANEbQjyfr-21" source="blW8z2-uSETgaS1ceUKB-56" target="blW8z2-uSETgaS1ceUKB-56" edge="1">
                    <mxGeometry relative="1" as="geometry">
                        <mxPoint x="110" y="558" as="sourcePoint"/>
                        <mxPoint x="570" y="558" as="targetPoint"/>
                        <Array as="points"/>
                    </mxGeometry>
                </mxCell>
                <mxCell id="blW8z2-uSETgaS1ceUKB-65" value="" style="resizable=0;html=1;align=right;verticalAlign=bottom;" parent="blW8z2-uSETgaS1ceUKB-64" connectable="0" vertex="1">
                    <mxGeometry x="1" relative="1" as="geometry"/>
                </mxCell>
                <mxCell id="TxvZMwwkPNW5cJcF__H_-12" value="&lt;p style=&quot;margin:0px;margin-top:4px;margin-left:5px;text-align:left;&quot;&gt;&lt;b&gt;REF&lt;/b&gt;&lt;/p&gt;" style="html=1;shape=mxgraph.sysml.package;overflow=fill;labelX=55.23;align=left;spacingLeft=5;verticalAlign=top;spacingTop=-3;" parent="JJxVMYK1_M4ANEbQjyfr-21" vertex="1">
                    <mxGeometry x="130" y="480" width="420" height="45" as="geometry"/>
                </mxCell>
                <mxCell id="TxvZMwwkPNW5cJcF__H_-13" value="Diagramme Ajouter véhicule" style="text;html=1;strokeColor=none;fillColor=none;align=center;verticalAlign=middle;whiteSpace=wrap;rounded=0;" parent="JJxVMYK1_M4ANEbQjyfr-21" vertex="1">
                    <mxGeometry x="250" y="487.5" width="210" height="30" as="geometry"/>
                </mxCell>
                <mxCell id="TxvZMwwkPNW5cJcF__H_-16" value="&lt;p style=&quot;margin:0px;margin-top:4px;margin-left:5px;text-align:left;&quot;&gt;&lt;b&gt;ALT&lt;/b&gt;&lt;/p&gt;" style="html=1;shape=mxgraph.sysml.package;overflow=fill;labelX=55.23;align=left;spacingLeft=5;verticalAlign=top;spacingTop=-3;" parent="JJxVMYK1_M4ANEbQjyfr-21" vertex="1">
                    <mxGeometry x="60" y="600" width="630" height="400" as="geometry"/>
                </mxCell>
                <mxCell id="TxvZMwwkPNW5cJcF__H_-17" value="Le cas : Modifier les informations d'une voiture" style="text;html=1;strokeColor=none;fillColor=none;align=center;verticalAlign=middle;whiteSpace=wrap;rounded=0;" parent="JJxVMYK1_M4ANEbQjyfr-21" vertex="1">
                    <mxGeometry x="130" y="610" width="290" height="30" as="geometry"/>
                </mxCell>
                <mxCell id="TxvZMwwkPNW5cJcF__H_-18" value="&lt;p style=&quot;margin:0px;margin-top:4px;margin-left:5px;text-align:left;&quot;&gt;&lt;b&gt;REF&lt;/b&gt;&lt;/p&gt;" style="html=1;shape=mxgraph.sysml.package;overflow=fill;labelX=55.23;align=left;spacingLeft=5;verticalAlign=top;spacingTop=-3;" parent="JJxVMYK1_M4ANEbQjyfr-21" vertex="1">
                    <mxGeometry x="145" y="680" width="420" height="45" as="geometry"/>
                </mxCell>
                <mxCell id="TxvZMwwkPNW5cJcF__H_-19" value="Diagramme Modifier véhicule" style="text;html=1;strokeColor=none;fillColor=none;align=center;verticalAlign=middle;whiteSpace=wrap;rounded=0;" parent="JJxVMYK1_M4ANEbQjyfr-21" vertex="1">
                    <mxGeometry x="250" y="687.5" width="210" height="30" as="geometry"/>
                </mxCell>
                <mxCell id="TxvZMwwkPNW5cJcF__H_-20" value="" style="endArrow=none;html=1;rounded=0;dashed=1;dashPattern=1 2;" parent="JJxVMYK1_M4ANEbQjyfr-21" edge="1">
                    <mxGeometry relative="1" as="geometry">
                        <mxPoint x="60" y="780" as="sourcePoint"/>
                        <mxPoint x="690" y="784" as="targetPoint"/>
                        <Array as="points">
                            <mxPoint x="431" y="780"/>
                        </Array>
                    </mxGeometry>
                </mxCell>
                <mxCell id="TxvZMwwkPNW5cJcF__H_-21" value="" style="resizable=0;html=1;align=right;verticalAlign=bottom;" parent="TxvZMwwkPNW5cJcF__H_-20" connectable="0" vertex="1">
                    <mxGeometry x="1" relative="1" as="geometry"/>
                </mxCell>
                <mxCell id="TxvZMwwkPNW5cJcF__H_-22" value="&lt;p style=&quot;margin:0px;margin-top:4px;margin-left:5px;text-align:left;&quot;&gt;&lt;b&gt;ALT&lt;/b&gt;&lt;/p&gt;" style="html=1;shape=mxgraph.sysml.package;overflow=fill;labelX=55.23;align=left;spacingLeft=5;verticalAlign=top;spacingTop=-3;" parent="JJxVMYK1_M4ANEbQjyfr-21" vertex="1">
                    <mxGeometry x="90" y="800" width="570" height="140" as="geometry"/>
                </mxCell>
                <mxCell id="TxvZMwwkPNW5cJcF__H_-23" value="Le cas : Supprimer une voiture" style="text;html=1;strokeColor=none;fillColor=none;align=center;verticalAlign=middle;whiteSpace=wrap;rounded=0;" parent="JJxVMYK1_M4ANEbQjyfr-21" vertex="1">
                    <mxGeometry x="150" y="800" width="290" height="30" as="geometry"/>
                </mxCell>
                <mxCell id="TxvZMwwkPNW5cJcF__H_-24" value="&lt;p style=&quot;margin:0px;margin-top:4px;margin-left:5px;text-align:left;&quot;&gt;&lt;b&gt;REF&lt;/b&gt;&lt;/p&gt;" style="html=1;shape=mxgraph.sysml.package;overflow=fill;labelX=55.23;align=left;spacingLeft=5;verticalAlign=top;spacingTop=-3;" parent="JJxVMYK1_M4ANEbQjyfr-21" vertex="1">
                    <mxGeometry x="170" y="860" width="420" height="45" as="geometry"/>
                </mxCell>
                <mxCell id="TxvZMwwkPNW5cJcF__H_-25" value="Diagramme Modifier véhicule" style="text;html=1;strokeColor=none;fillColor=none;align=center;verticalAlign=middle;whiteSpace=wrap;rounded=0;" parent="JJxVMYK1_M4ANEbQjyfr-21" vertex="1">
                    <mxGeometry x="275" y="867.5" width="210" height="30" as="geometry"/>
                </mxCell>
                <mxCell id="blW8z2-uSETgaS1ceUKB-48" style="edgeStyle=orthogonalEdgeStyle;rounded=0;orthogonalLoop=1;jettySize=auto;html=1;exitX=0.5;exitY=1;exitDx=0;exitDy=0;exitPerimeter=0;" parent="1" source="JJxVMYK1_M4ANEbQjyfr-21" target="JJxVMYK1_M4ANEbQjyfr-21" edge="1">
                    <mxGeometry relative="1" as="geometry"/>
                </mxCell>
            </root>
        </mxGraphModel>
    </diagram>
</mxfile>